<svg width="59" height="96" viewBox="0 0 59 96" fill="none" xmlns="http://www.w3.org/2000/svg">
<rect x="1.25" y="1.25" width="56.5" height="93.5" rx="8.75" fill="black" stroke="white" stroke-width="2.5"/>
<path d="M25.25 63.5H32.75C39 63.5 41.5 61 41.5 54.75V47.25C41.5 41 39 38.5 32.75 38.5H25.25C19 38.5 16.5 41 16.5 47.25V54.75C16.5 61 19 63.5 25.25 63.5Z" stroke="white" stroke-width="1.5" stroke-linecap="round" stroke-linejoin="round"/>
<path d="M33.4625 59.125V54.25M33.4625 45.3125V42.875M33.4625 45.3125C33.8893 45.3125 34.3119 45.3966 34.7062 45.5599C35.1005 45.7232 35.4588 45.9626 35.7606 46.2644C36.0624 46.5662 36.3018 46.9245 36.4651 47.3188C36.6284 47.7131 36.7125 48.1357 36.7125 48.5625C36.7125 48.9893 36.6284 49.4119 36.4651 49.8062C36.3018 50.2005 36.0624 50.5588 35.7606 50.8606C35.4588 51.1624 35.1005 51.4018 34.7062 51.5651C34.3119 51.7284 33.8893 51.8125 33.4625 51.8125C32.6005 51.8125 31.7739 51.4701 31.1644 50.8606C30.5549 50.2511 30.2125 49.4245 30.2125 48.5625C30.2125 47.7005 30.5549 46.8739 31.1644 46.2644C31.7739 45.6549 32.6005 45.3125 33.4625 45.3125ZM24.5375 59.125V56.6875M24.5375 56.6875C24.9643 56.6875 25.3869 56.6034 25.7812 56.4401C26.1755 56.2768 26.5338 56.0374 26.8356 55.7356C27.1374 55.4338 27.3768 55.0755 27.5401 54.6812C27.7034 54.2869 27.7875 53.8643 27.7875 53.4375C27.7875 53.0107 27.7034 52.5881 27.5401 52.1938C27.3768 51.7995 27.1374 51.4412 26.8356 51.1394C26.5338 50.8376 26.1755 50.5982 25.7812 50.4349C25.3869 50.2716 24.9643 50.1875 24.5375 50.1875C23.6755 50.1875 22.8489 50.5299 22.2394 51.1394C21.6299 51.7489 21.2875 52.5755 21.2875 53.4375C21.2875 54.2995 21.6299 55.1261 22.2394 55.7356C22.8489 56.3451 23.6755 56.6875 24.5375 56.6875ZM24.5375 47.75V42.875" stroke="white" stroke-width="1.5" stroke-miterlimit="10" stroke-linecap="round" stroke-linejoin="round"/>
<path d="M18.25 2.25H40.75V8C40.75 10.0711 39.0711 11.75 37 11.75H22C19.9289 11.75 18.25 10.0711 18.25 8V2.25Z" fill="black" stroke="white" stroke-width="2.5"/>
</svg>
